PathFileType	4	(X/Y/Z)	C:/Users/beibeiliu/ov580/test_trc/capture2\sequence.12_training_dense_left.trc
DataRate	CameraRate	NumFrames	NumMarkers	Units	OrigDataRate	OrigDataStartFrame	OrigNumFrames
120	120	23	19	mm	120	1	369
Frame#	Time	ThumbCMC			ThumbMCP			ThumbIP			ThumbTip			IndexMCP			IndexPIP			IndexTip			MiddleMCP			MiddlePIP			MiddleTip			RingMCP			RingPIP			RingTip			PinkyMCP			PinkyPIP			PinkyTip			BackHand1			BackHand2			BackHand3	
		X0	Y0	Z0	X1	Y1	Z1	X2	Y2	Z2	X3	Y3	Z3	X4	Y4	Z4	X5	Y5	Z5	X6	Y6	Z6	X7	Y7	Z7	X8	Y8	Z8	X9	Y9	Z9	X10	Y10	Z10	X11	Y11	Z11	X12	Y12	Z12	X13	Y13	Z13	X14	Y14	Z14	X15	Y15	Z15	X16	Y16	Z16	X17	Y17	Z17	X18	Y18	Z18	
0	0	-91.9274	23.203	-2.37937	-74.5047	5.70653	-15.0688	-51.2302	-1.57475	-28.6658	-33.8382	-9.43831	-46.0611	-89.3191	37.4894	-77.3681	-78.75	33.8643	-100.919	-71.7006	28.5205	-130.571	-108.969	39.3421	-90.2157	-105.54	35.8438	-117.718	-102.667	27.2321	-146.053	-128.237	35.4546	-92.5495	-127.842	33.2528	-114.345	-125.712	27.9155	-140.837	-155.472	26.6076	-85.1946	-157.11	22.7336	-103.117	-157.703	25.7594	-128.343	-141.035	46.2118	-45.1337	-150.482	48.9034	-11.7402	-115.569	48.997	-22.2661	
1	0.00833333	-93.3938	21.0119	-3.77944	-73.6372	5.0193	-14.9575	-56.2117	-2.77575	-30.675	-35.383	-10.9181	-45.2268	-90.154	36.1101	-77.7152	-80.3704	32.5664	-104.388	-74.8654	26.0778	-130.895	-108.414	37.8241	-91.3651	-105.793	34.7124	-113.884	-103.719	25.8797	-145.013	-133.452	33.8475	-90.4942	-127.3	30.3299	-113.376	-124.679	25.4093	-144.495	-153.876	24.6281	-79.723	-158.005	21.411	-107.088	-161.392	24.785	-126.217	-144.623	43.536	-40.9144	-149.181	48.2359	-13.0432	-114.745	46.3263	-22.5461	
2	0.0166667	-94.3779	19.3345	-0.97705	-76.6188	3.88987	-12.363	-51.9047	-4.72114	-30.7327	-39.2506	-11.0615	-41.9477	-84.6676	34.1584	-78.8996	-81.6161	30.6903	-101.317	-72.8233	25.648	-125.272	-111.463	36.5196	-87.6053	-106.111	32.3687	-114.041	-101.326	24.936	-141.755	-128.975	32.3141	-86.4665	-127.057	27.9375	-116.851	-126.165	23.0077	-142.703	-155.319	24.5796	-80.174	-158.589	19.7565	-103.936	-159.908	20.6037	-125.93	-145.018	43.0066	-40.7051	-148.528	45.4119	-12.1615	-116.996	44.8983	-19.2687	
3	0.025	-90.2255	18.9865	-3.80346	-76.2467	3.0184	-14.6501	-54.5282	-4.9725	-28.8152	-39.0648	-11.7562	-38.9538	-87.9482	33.0496	-78.4046	-77.1078	29.6699	-103.058	-78.7035	23.9033	-124.945	-109.915	35.1291	-85.3502	-106.647	30.7631	-115.658	-104.55	22.8826	-142.404	-128.648	31.4594	-88.4499	-128.787	27.0082	-115.221	-125.474	22.4469	-137.047	-151.328	22.6155	-77.6771	-154.566	20.1222	-102.581	-160.602	21.5725	-125.213	-143.004	40.855	-42.5974	-152.359	45.0919	-13.8248	-115.191	44.5438	-21.3769	
4	0.0333333	-96.4501	18.4857	-1.28676	-75.0676	2.37633	-15.2595	-53.4642	-5.38736	-25.8498	-36.4936	-12.3807	-38.3622	-87.0814	32.976	-74.1281	-80.7074	30.0455	-98.414	-74.9038	24.0622	-123.489	-107.873	35.1285	-90.2635	-104.656	28.3822	-116.928	-103.368	22.2755	-140.175	-134.594	29.2654	-88.1451	-128.384	25.9876	-116.071	-127.61	19.1284	-141.368	-157.496	20.9405	-80.3262	-154.496	17.915	-100.685	-161.654	19.6831	-125.101	-145.017	41.3971	-41.9448	-147.591	44.7163	-13.5245	-117.075	42.8612	-21.3732	
5	0.0416667	-95.5031	17.3475	-4.49562	-77.0539	2.02839	-14.3057	-54.8291	-5.99213	-29.825	-36.3754	-13.2068	-38.5937	-87.5946	31.0932	-72.3839	-83.4342	26.8703	-102.403	-76.4222	21.7334	-123.063	-113.137	32.1113	-89.5021	-106.971	27.6714	-114.043	-107.229	19.1101	-141.249	-136.198	27.3814	-87.8599	-132.714	23.4459	-115.799	-130.996	17.8901	-138.168	-156.271	19.9999	-79.1281	-156.127	15.8372	-98.2451	-163.083	15.2356	-123.76	-143.694	39.5534	-37.3703	-151.518	42.4265	-11.7379	-115.315	41.583	-18.8879	
6	0.05	-93.9396	16.4262	-2.90134	-75.2768	0.322688	-13.5693	-58.8641	-8.46014	-26.0162	-40.2299	-14.2491	-38.7035	-91.1331	29.2808	-77.9223	-81.8636	25.3755	-97.2465	-79.6629	19.3599	-123.469	-114.654	30.4173	-89.7018	-107.962	26.1426	-111.344	-105.642	17.563	-142.501	-132.683	25.8077	-84.3966	-132.884	21.8146	-112.143	-127.557	16.6967	-140.79	-159.257	17.6357	-79.084	-159.229	13.3254	-103.406	-163.669	14.081	-124.778	-143.445	36.051	-36.3045	-154.002	41.3676	-10.1048	-119.435	41.9897	-18.1803	
7	0.0583333	-95.9375	15.9778	1.73846	-77.7494	-1.12087	-10.7839	-54.3596	-9.08368	-27.6274	-38.1123	-15.8668	-36.4773	-90.5001	28.0746	-76.3461	-80.5189	22.2819	-101.541	-80.8748	17.5848	-123.74	-113.039	28.6325	-89.0212	-109.107	23.5557	-112.247	-102.225	13.6752	-143.923	-132.567	24.8217	-85.5647	-135.551	19.7478	-112.963	-131.335	13.9812	-137.478	-158.992	17.3263	-81.4	-158.708	12.165	-99.4528	-163.298	12.007	-127.18	-148.8	35.6226	-37.6151	-153.475	40.4439	-11.9111	-116.367	41.6386	-18.3925	
8	0.0666667	-95.6622	13.386	-0.981535	-77.8647	-3.20458	-13.6406	-59.2888	-11.0571	-27.7927	-38.6698	-18.2274	-41.2317	-90.9604	26.2681	-73.9972	-81.9205	20.8621	-102.586	-75.2971	13.8163	-126.651	-113.099	28.0012	-85.4191	-111.341	21.7402	-116.162	-105.806	12.3508	-141.797	-134.359	24.0492	-87.4023	-135.141	19.169	-112.359	-127.851	12.0818	-139.306	-159.767	15.987	-76.6779	-159.028	11.3128	-98.109	-164.73	11.5919	-124.632	-145.594	34.1435	-38.5038	-154.53	39.2286	-9.01643	-118.27	38.0917	-17.6799	
9	0.075	-98.1688	12.3699	0.493233	-74.7252	-4.70991	-10.6585	-55.844	-12.1016	-23.1724	-42.7849	-20.595	-38.4768	-89.5703	24.2992	-74.3627	-85.4301	20.4407	-98.0937	-79.8535	13.9221	-124.6	-111.09	26.9029	-86.9125	-107.39	21.5164	-112.849	-105.28	11.1537	-139.652	-130.804	23.4376	-87.2918	-136.111	19.0486	-110.435	-129.818	10.8442	-137.236	-155.158	14.89	-75.0667	-160.045	9.8385	-100.342	-162.748	9.7944	-123.097	-148.123	33.9202	-38.0408	-152.808	38.9756	-12.4085	-117.164	37.3485	-16.2344	
10	0.0833333	-95.2642	12.1597	-0.421818	-76.912	-4.67178	-10.7542	-56.6259	-13.3715	-25.4845	-38.6497	-20.5792	-38.3092	-91.524	22.9	-75.5136	-82.2586	18.69	-98	-79.7148	11.2944	-126.166	-111.954	25.8198	-88.3245	-108.288	19.9773	-111.399	-108.838	10.1424	-139.643	-137.272	21.5484	-85.9262	-135.178	18.0461	-110.203	-128.678	10.9656	-138.23	-155.099	13.8395	-75.1328	-159.18	9.81405	-99.3973	-162.5	8.75366	-122.145	-147.821	33.1596	-37.2913	-151.79	37.0369	-12.7147	-118.648	37.4423	-17.6475	
11	0.0916667	-99.6273	10.7666	1.45757	-75.4724	-5.05005	-7.90434	-55.6475	-12.8377	-23.0308	-42.3459	-20.2055	-38.0363	-89.5908	22.7914	-75.0885	-81.257	17.9817	-99.8371	-79.8104	12.3481	-122.237	-112.219	25.2447	-85.064	-109.864	19.9892	-113.473	-106.106	9.90147	-142.653	-135.934	21.1002	-83.5737	-131.795	17.3911	-108.681	-131.182	11.6319	-134.914	-153.493	14.5068	-79.9578	-157.136	9.41341	-96.9685	-164.534	9.21029	-123.859	-146.905	34.3486	-39.0218	-154.382	38.2435	-11.2138	-115.425	34.7382	-18.0483	
12	0.1	-98.0056	12.0061	-2.92894	-79.9348	-5.51058	-12.04	-55.1694	-13.2208	-23.0828	-38.6309	-19.0615	-35.8575	-88.2085	23.4073	-75.9526	-79.117	18.9778	-98.4366	-77.96	13.4274	-120.994	-109.826	25.5238	-86.7263	-108.747	19.7777	-114.67	-107.296	11.9859	-139.369	-136.862	21.971	-85.4985	-129.815	17.5382	-111.635	-129.552	11.5065	-136.374	-157.359	14.0179	-75.8803	-158.568	9.69722	-96.5246	-161.832	10.8658	-124.734	-142.31	32.1297	-39.196	-152.026	37.7064	-8.32425	-117.88	35.0897	-16.3716	
13	0.108333	-97.2534	11.5332	1.00245	-74.9739	-4.47526	-11.4783	-54.023	-11.6646	-25.8215	-37.8636	-19.1654	-38.144	-92.8897	24.0501	-74.13	-82.4949	20.8977	-97.1253	-77.2281	13.1766	-125.308	-111.359	26.6984	-89.114	-107.051	20.3355	-114.323	-104.762	12.2918	-138.859	-133.636	22.2376	-87.4665	-132.405	17.7855	-108.89	-128.565	11.8069	-135.018	-153.592	15.3386	-80.2024	-158.574	9.33646	-102.491	-159.901	10.5834	-124.628	-143.421	32.0947	-39.6868	-151.242	39.2878	-11.2778	-118.129	38.2643	-15.2093	
14	0.116667	-94.774	13.9391	0.333543	-76.71	-2.53359	-9.49669	-54.7218	-10.7099	-24.1916	-40.0875	-17.4184	-38.9512	-91.9634	25.4783	-77.3474	-83.5327	21.2136	-99.5621	-77.6746	13.4824	-124.9	-110.637	27.2543	-85.7861	-106.357	21.6948	-112.925	-105.359	11.3819	-144.29	-133.145	23.0447	-86.5799	-131.834	18.7163	-111.524	-127.391	12.3406	-134.473	-157.643	15.3741	-80.696	-159.107	10.7728	-98.0574	-161.945	11.3345	-126.791	-147.8	34.6178	-38.0583	-150.326	37.4363	-11.5136	-118.547	38.3785	-18.4341	
15	0.125	-94.7061	14.2414	-0.531601	-75.9609	-1.97239	-13.3112	-52.5509	-9.27727	-29.1933	-39.2368	-16.9944	-37.4198	-89.6934	26.4941	-75.5348	-79.2655	22.198	-99.3938	-78.2393	14.7375	-128.537	-113.534	28.6696	-85.9099	-104.881	22.637	-115.97	-104.033	14.4769	-141.13	-134.444	24.441	-85.4709	-130.415	19.7162	-109.97	-128.619	13.1847	-136.428	-157.916	16.245	-79.7473	-156.318	11.3685	-99.6429	-158.235	11.9059	-125.546	-144.224	34.2406	-40.4583	-150.485	39.2478	-11.2346	-115.297	40.6597	-20.8508	
16	0.133333	-93.6409	16.1685	0.582414	-72.2512	-0.654813	-15.1976	-54.2033	-7.82335	-27.7536	-35.5988	-14.3462	-41.8979	-90.1723	27.8859	-74.2494	-81.5201	22.3069	-102.912	-77.2665	17.1481	-126.08	-114.173	29.3577	-85.2639	-108.768	24.8993	-115.08	-104.998	16.2802	-141.322	-130.155	25.2776	-86.771	-131.583	21.7312	-113.389	-127.447	14.9515	-141.054	-155.182	17.1779	-80.9538	-156.219	12.8684	-99.5092	-158.32	12.2941	-123.804	-144.901	36.708	-36.7672	-148.159	42.0133	-13.1133	-116.09	41.6272	-22.0096	
17	0.141667	-90.9384	16.5667	-1.27922	-75.241	-0.0839876	-11.9964	-53.9448	-7.38674	-26.4318	-34.8225	-13.699	-39.45	-86.5704	28.7329	-73.3493	-80.8497	23.599	-103.153	-76.4527	18.1669	-125.638	-110.81	31.0024	-89.8316	-105.327	25.9109	-113.927	-104.079	16.1413	-145.707	-132.496	27.0106	-88.1623	-131.579	23.5037	-111.296	-122.777	15.6679	-138.385	-152.836	18.6154	-78.3824	-156.691	13.7585	-102.58	-158.482	13.6647	-122.194	-141.449	37.8434	-39.5771	-149.595	41.8414	-14.138	-117.16	41.7493	-20.7697	
18	0.15	-89.3526	17.9353	-2.76217	-75.5286	1.77236	-12.7485	-49.9292	-6.57595	-29.4022	-37.4187	-12.5754	-42.7374	-87.3497	29.4061	-73.7191	-78.3672	26.5606	-101.076	-77.4165	20.0858	-127.162	-109.324	33.059	-86.878	-106.818	27.312	-118.3	-104.365	20.0892	-141.112	-131.376	28.6463	-86.2988	-131.292	24.7757	-114.24	-124.306	18.1087	-141.705	-153.071	19.5566	-79.0839	-153.136	15.328	-103.254	-155.597	16.1517	-122.883	-140.132	38.7068	-37.88	-149.381	44.6949	-11.6161	-117.178	40.9015	-19.9449	
19	0.158333	-91.8271	18.1518	-2.99264	-70.9144	2.83309	-12.4494	-51.5245	-4.50055	-28.1783	-34.0486	-11.1222	-40.362	-87.4344	32.6645	-79.0755	-79.1498	28.8219	-99.5488	-75.9207	21.2783	-127.256	-108.548	34.9231	-90.8045	-101.56	29.2402	-115.385	-102.243	21.0838	-142.213	-131.598	30.2517	-91.094	-128.4	26.2855	-111.773	-122.987	20.1965	-141.131	-154.048	21.511	-78.5605	-155.65	17.0598	-100.673	-158.531	16.3306	-124.635	-139.665	42.0826	-41.3702	-147.465	42.9954	-9.81024	-111.192	43.1679	-18.1394	
20	0.166667	-93.8827	19.4652	-1.41643	-70.0606	3.82301	-15.5632	-49.0676	-2.97992	-30.4851	-31.9736	-10.1589	-42.4402	-87.7976	33.4456	-74.6321	-79.3518	29.5846	-103.862	-74.7124	23.0201	-129.455	-110.755	35.2044	-88.3624	-101.293	31.0043	-114.528	-100.153	22.1352	-144.181	-131.136	30.8069	-88.2818	-128.724	27.7531	-117.331	-121.908	21.5621	-139.485	-152.656	22.058	-79.902	-154.793	17.3643	-101.71	-155.226	18.7784	-124.934	-140.127	40.384	-40.4829	-146.377	43.8544	-13.9916	-114.317	44.6379	-22.9174	
21	0.175	-91.345	22.3226	-4.30829	-74.5015	5.84551	-12.4428	-50.5385	-0.947684	-28.7674	-37.3825	-7.95128	-39.727	-86.5624	35.5198	-76.7792	-76.2424	32.4457	-100.138	-72.411	27.3298	-124.866	-105.891	38.2698	-90.589	-103.6	32.3815	-117.401	-99.5345	24.9293	-142.448	-130.518	31.8807	-87.2686	-126.734	28.6799	-115.96	-123.594	23.0441	-139.722	-150.553	22.7775	-82.9587	-152	18.5206	-105.091	-156.421	18.9422	-124.602	-140.565	41.8285	-41.5272	-149.826	44.6448	-11.2893	-115.338	45.7905	-20.6102	
22	0.183333	-93.1022	22.936	-1.61329	-72.9443	7.89239	-17.6409	-50.353	1.24727	-31.2346	-32.0158	-5.08074	-43.1822	-86.229	38.9059	-72.36	-78.039	35.2478	-99.1519	-74.316	29.0796	-123.181	-108.132	39.3831	-88.0685	-108.379	34.4228	-113.357	-102.406	25.8305	-145.624	-128.549	32.2383	-85.2183	-130.073	29.1646	-113.295	-121.403	24.0783	-137.945	-153.527	22.5042	-81.5775	-153.629	17.5802	-104.945	-158.411	19.4607	-125.184	-145.205	42.2257	-41.0622	-152.658	46.2045	-10.1262	-116.413	48.4598	-19.2618	
